<svg width="1280" height="256" viewBox="0 0 1280 256" fill="none" xmlns="http://www.w3.org/2000/svg">
<rect x="-4" width="1292" height="215" fill="#174760"/>
<path d="M-4 221.89L-4 255.09L1286.98 255.09V195.773C1254.17 201.676 1177.95 215.339 1135.49 222.776C1082.43 232.072 1015.85 237.383 917.437 244.023C819.022 250.663 650.172 221.89 639.559 220.562C628.945 219.234 539.214 197.987 367.469 193.117C230.074 189.222 62.575 210.676 -4 221.89Z" fill="white"/>
<path opacity="0.6" d="M-4 212.16L-4 245.359L1287.98 245.359V186.043C1255.15 191.945 1178.87 205.609 1136.38 213.045C1083.27 222.341 1016.65 227.653 918.154 234.293C819.662 240.933 650.681 212.16 640.06 210.832C629.438 209.504 539.636 188.256 367.758 183.387C230.256 179.492 62.6268 200.946 -4 212.16Z" fill="white"/>
<path opacity="0.15" d="M1291 202.861V235.629L-4.00024 235.629V177.083C28.907 182.908 105.368 196.394 147.954 203.734C201.186 212.91 267.968 218.152 366.69 224.706C465.411 231.26 634.787 202.861 645.433 201.55C656.08 200.239 746.09 179.267 918.369 174.461C1056.19 170.617 1224.21 191.792 1291 202.861Z" fill="white"/>
<path opacity="0.2" d="M1292 220.7V253.469L-4 253.469V194.923C28.9327 200.748 105.453 214.234 148.072 221.574C201.345 230.749 268.179 235.992 366.978 242.546C465.776 249.1 635.283 220.7 645.937 219.39C656.592 218.079 746.673 197.107 919.085 192.301C1057.02 188.456 1225.17 209.632 1292 220.7Z" fill="white"/>
</svg>
