<svg width="1280" height="268" viewBox="0 0 1280 268" fill="none" xmlns="http://www.w3.org/2000/svg">
<path d="M-8 204C-8 175.317 -8 49.4512 -8 2.2069C88.5702 17.2706 161.348 89.6551 227.127 104.718C292.907 119.782 332.955 125.59 412.828 125.59C498.11 125.59 562.538 125.59 640 104.718C717.462 83.8466 864.193 43.7378 963.255 16.1652C1045.13 -6.62351 1111.63 -4.11688 1171.81 16.1652C1231.98 36.4473 1255.43 67.9481 1288 94.448C1288 130.737 1288 175.317 1288 204L640 204H-8Z" fill="white" fill-opacity="0.26"/>
<path d="M1288 234C1288 203.208 1288 68.0873 1288 17.3692C1191.43 33.5405 1127.5 94.6024 1052.87 127.418C978.245 160.234 947.045 149.825 867.172 149.825C781.89 149.825 717.462 149.825 640 127.418C562.538 105.012 415.807 61.9538 316.745 32.3538C234.87 7.88946 168.365 10.5804 108.193 32.3538C48.0207 54.1273 24.5651 87.9443 -7.99995 116.393C-8.00003 155.35 -7.99999 203.208 -7.99998 234L640 234H1288Z" fill="#5F919F"/>
<path d="M-8 221C-8 195.209 -8 82.035 -8 39.5545C88.5702 53.0993 161.348 118.185 227.127 131.729C292.907 145.274 332.955 150.497 412.828 150.497C498.11 150.497 562.538 150.497 640 131.729C717.462 112.962 864.193 76.8977 963.255 52.1054C1045.13 31.6145 1175.5 -7.50477 1288 1.25975C1288 52.1054 1288 87.2645 1288 119.894C1288 152.524 1288 195.209 1288 221L640 221H-8Z" fill="#174760"/>
<path d="M1288 251C1288 221.754 1288 93.4208 1288 45.2502C1191.43 60.6093 1125.06 114.209 1052.87 149.772C980.683 185.334 914.123 185.334 834.25 185.334C748.967 185.334 717.462 171.053 640 149.772C562.538 128.491 415.807 87.5954 316.745 59.4822C234.87 36.2466 168.365 38.8024 108.193 59.4822C48.0207 80.162 24.5651 112.28 -7.99995 139.3C-8.00003 176.301 -7.99999 221.754 -7.99998 251L640 251H1288Z" fill="#174760" fill-opacity="0.45"/>
<path d="M1288 268C1288 245.644 1288 147.543 1288 110.72C1179.25 110.72 1150.75 135.622 1054.75 155.94C958.75 176.259 915.625 191.485 832 201.795C725.5 214.926 700.962 207.752 623.5 191.485C546.038 175.217 415.807 143.09 316.745 121.599C234.87 103.838 168.365 105.791 108.193 121.599C48.0207 137.407 24.5651 161.96 -7.99995 182.614C-8.00003 210.898 -7.99999 245.644 -7.99998 268L640 268H1288Z" fill="white"/>
</svg>
