<svg width="1280" height="1117" viewBox="0 0 1280 1117" fill="none" xmlns="http://www.w3.org/2000/svg">
<g clip-path="url(#clip0_252_257)">
<rect width="1280" height="1117" fill="#4C8494"/>
<g filter="url(#filter0_f_252_257)">
<path fill-rule="evenodd" clip-rule="evenodd" d="M1216.41 -122.541C1346.17 -131.658 1411.17 -2.81984 1504.94 69.0839C1601.93 143.452 1785.11 192.527 1765.55 298.533C1745.56 406.888 1541.17 403.436 1431.11 469.269C1350.16 517.69 1317.01 617.649 1216.41 627.016C1111 636.83 1023.26 571.338 944.76 514.551C860.877 453.873 755.689 388.553 762.296 298.533C768.793 210.016 902.134 173.645 974.72 106.34C1059.5 27.7248 1086.68 -113.425 1216.41 -122.541Z" fill="#6499A2"/>
</g>
<g filter="url(#filter1_f_252_257)">
<path fill-rule="evenodd" clip-rule="evenodd" d="M346.101 591.475C436.662 573.147 541.303 461.82 604.943 519.353C675.004 582.692 499.949 687.772 540.69 767.392C589.669 863.113 821.276 848.938 826.909 953.142C831.617 1040.22 651.741 1032.55 556.857 1066.44C487.038 1091.39 417.236 1147.03 346.101 1124.91C273.337 1102.28 294.617 990.331 224.15 962.984C119.469 922.358 -59.5753 1033.63 -112.346 946.992C-160.94 867.209 35.3802 825.88 95.6647 752.033C131.143 708.572 114.131 640.514 163.881 608.619C213.821 576.602 285.172 603.807 346.101 591.475Z" fill="#6499A2"/>
</g>
<g filter="url(#filter2_f_252_257)">
<path fill-rule="evenodd" clip-rule="evenodd" d="M870.848 432.742C966.304 403.945 1007.35 242.534 1106.11 253.537C1187.81 262.639 1204.58 389.062 1226.06 472.315C1246.66 552.122 1275.16 650.521 1225.03 714.296C1173.2 780.229 1063.75 727.842 992.573 769.369C936.17 802.278 935.314 923.928 870.848 920.946C805.193 917.909 815.381 789.467 756.674 758.458C675.844 715.764 551.15 795.754 494.154 721.975C443.768 656.754 498.428 551.463 542.771 481.572C581.314 420.822 648.014 381.214 716.854 370.968C772.626 362.667 816.709 449.075 870.848 432.742Z" fill="#174760"/>
</g>
<g filter="url(#filter3_f_252_257)">
<path fill-rule="evenodd" clip-rule="evenodd" d="M85.7381 618.307C122.872 644.115 107.654 719.61 143.465 747.75C181.113 777.335 250.294 724.761 276.056 767.862C298.803 805.919 250.385 852.343 229.578 891.821C213.521 922.288 199.108 959.083 169.486 970.064C141.359 980.491 115.31 945.409 85.7381 945.143C56.592 944.882 30.9002 977.974 2.94147 968.569C-27.8866 958.199 -47.0118 924.753 -65.0825 894.41C-89.7151 853.05 -120.263 812.157 -119.998 762.142C-119.69 703.752 -107.163 634.368 -63.5465 603.875C-19.8892 573.353 42.0108 587.916 85.7381 618.307Z" fill="#174760"/>
</g>
<g filter="url(#filter4_f_252_257)">
<path fill-rule="evenodd" clip-rule="evenodd" d="M1540.34 1054.31C1590.04 1080.12 1569.67 1155.61 1617.6 1183.75C1667.98 1213.33 1760.57 1160.76 1795.05 1203.86C1825.49 1241.92 1760.69 1288.34 1732.84 1327.82C1711.35 1358.29 1692.07 1395.08 1652.42 1406.06C1614.78 1416.49 1579.92 1381.41 1540.34 1381.14C1501.33 1380.88 1466.95 1413.97 1429.53 1404.57C1388.28 1394.2 1362.68 1360.75 1338.5 1330.41C1305.53 1289.05 1264.65 1248.16 1265 1198.14C1265.42 1139.75 1282.18 1070.37 1340.55 1039.87C1398.98 1009.35 1481.82 1023.92 1540.34 1054.31Z" fill="#174760"/>
</g>
<g filter="url(#filter5_f_252_257)">
<path fill-rule="evenodd" clip-rule="evenodd" d="M306.791 77.9893C298.556 106.937 275.56 133.51 241.346 153.719C211.134 171.565 163.124 168.143 129.011 183C70.6835 208.402 45.4925 268.736 -25.6026 269.978C-91.8727 271.137 -139.912 225.476 -168.706 188.204C-194.923 154.267 -197.25 112.737 -173.917 77.9893C-153.91 48.1932 -78.6876 48.0291 -55.2421 19.2263C-23.2812 -20.0378 -75.4982 -78.9592 -22.4961 -108.032C26.6738 -135.004 109.245 -120.497 168.956 -103.753C225.388 -87.9282 264.346 -55.0743 290.815 -20.1734C313.926 10.2994 316.234 44.7942 306.791 77.9893Z" fill="#64738B"/>
</g>
<g filter="url(#filter6_f_252_257)">
<path fill-rule="evenodd" clip-rule="evenodd" d="M1498.79 200.989C1490.56 229.937 1467.56 256.51 1433.35 276.719C1403.13 294.565 1355.12 291.143 1321.01 306C1262.68 331.402 1237.49 391.736 1166.4 392.978C1100.13 394.137 1052.09 348.476 1023.29 311.204C997.077 277.267 994.75 235.737 1018.08 200.989C1038.09 171.193 1113.31 171.029 1136.76 142.226C1168.72 102.962 1116.5 44.0408 1169.5 14.9676C1218.67 -12.0035 1301.25 2.50293 1360.96 19.247C1417.39 35.0718 1456.35 67.9257 1482.81 102.827C1505.93 133.299 1508.23 167.794 1498.79 200.989Z" fill="#64738B"/>
</g>
<g filter="url(#filter7_f_252_257)">
<path fill-rule="evenodd" clip-rule="evenodd" d="M1100.25 605.989C1146.15 596.255 1199.19 537.129 1231.45 567.685C1266.96 601.324 1178.23 657.133 1198.88 699.419C1223.71 750.256 1341.1 742.728 1343.95 798.071C1346.34 844.32 1255.17 840.242 1207.07 858.245C1171.69 871.492 1136.31 901.045 1100.25 889.297C1063.37 877.28 1074.15 817.822 1038.44 803.298C985.378 781.721 894.627 840.819 867.88 794.805C843.249 752.432 942.757 730.482 973.313 691.261C991.295 668.179 982.672 632.034 1007.89 615.094C1033.2 598.09 1069.37 612.538 1100.25 605.989Z" fill="#6499A2"/>
</g>
<g filter="url(#filter8_f_252_257)">
<path fill-rule="evenodd" clip-rule="evenodd" d="M670.791 1066.99C662.556 1095.94 639.56 1122.51 605.346 1142.72C575.134 1160.57 527.124 1157.14 493.011 1172C434.683 1197.4 409.493 1257.74 338.397 1258.98C272.127 1260.14 224.088 1214.48 195.294 1177.2C169.077 1143.27 166.75 1101.74 190.083 1066.99C210.09 1037.19 285.312 1037.03 308.758 1008.23C340.719 968.962 288.502 910.041 341.504 880.968C390.674 853.996 473.246 868.503 532.956 885.247C589.388 901.072 628.346 933.926 654.815 968.827C677.926 999.299 680.234 1033.79 670.791 1066.99Z" fill="#64738B"/>
</g>
</g>
<defs>
<filter id="filter0_f_252_257" x="588.4" y="-296.6" width="1352.2" height="1098.2" filterUnits="userSpaceOnUse" color-interpolation-filters="sRGB">
<feFlood flood-opacity="0" result="BackgroundImageFix"/>
<feBlend mode="normal" in="SourceGraphic" in2="BackgroundImageFix" result="shape"/>
<feGaussianBlur stdDeviation="86.8" result="effect1_foregroundBlur_252_257"/>
</filter>
<filter id="filter1_f_252_257" x="-293.6" y="329.4" width="1294.2" height="974.2" filterUnits="userSpaceOnUse" color-interpolation-filters="sRGB">
<feFlood flood-opacity="0" result="BackgroundImageFix"/>
<feBlend mode="normal" in="SourceGraphic" in2="BackgroundImageFix" result="shape"/>
<feGaussianBlur stdDeviation="86.8" result="effect1_foregroundBlur_252_257"/>
</filter>
<filter id="filter2_f_252_257" x="300.4" y="79.4" width="1126.2" height="1015.2" filterUnits="userSpaceOnUse" color-interpolation-filters="sRGB">
<feFlood flood-opacity="0" result="BackgroundImageFix"/>
<feBlend mode="normal" in="SourceGraphic" in2="BackgroundImageFix" result="shape"/>
<feGaussianBlur stdDeviation="86.8" result="effect1_foregroundBlur_252_257"/>
</filter>
<filter id="filter3_f_252_257" x="-293.6" y="413.4" width="749.2" height="732.2" filterUnits="userSpaceOnUse" color-interpolation-filters="sRGB">
<feFlood flood-opacity="0" result="BackgroundImageFix"/>
<feBlend mode="normal" in="SourceGraphic" in2="BackgroundImageFix" result="shape"/>
<feGaussianBlur stdDeviation="86.8" result="effect1_foregroundBlur_252_257"/>
</filter>
<filter id="filter4_f_252_257" x="1091.4" y="849.4" width="885.2" height="732.2" filterUnits="userSpaceOnUse" color-interpolation-filters="sRGB">
<feFlood flood-opacity="0" result="BackgroundImageFix"/>
<feBlend mode="normal" in="SourceGraphic" in2="BackgroundImageFix" result="shape"/>
<feGaussianBlur stdDeviation="86.8" result="effect1_foregroundBlur_252_257"/>
</filter>
<filter id="filter5_f_252_257" x="-363.6" y="-296.6" width="849.2" height="740.2" filterUnits="userSpaceOnUse" color-interpolation-filters="sRGB">
<feFlood flood-opacity="0" result="BackgroundImageFix"/>
<feBlend mode="normal" in="SourceGraphic" in2="BackgroundImageFix" result="shape"/>
<feGaussianBlur stdDeviation="86.8" result="effect1_foregroundBlur_252_257"/>
</filter>
<filter id="filter6_f_252_257" x="828.4" y="-173.6" width="849.2" height="740.2" filterUnits="userSpaceOnUse" color-interpolation-filters="sRGB">
<feFlood flood-opacity="0" result="BackgroundImageFix"/>
<feBlend mode="normal" in="SourceGraphic" in2="BackgroundImageFix" result="shape"/>
<feGaussianBlur stdDeviation="86.8" result="effect1_foregroundBlur_252_257"/>
</filter>
<filter id="filter7_f_252_257" x="690.4" y="385.4" width="827.2" height="680.2" filterUnits="userSpaceOnUse" color-interpolation-filters="sRGB">
<feFlood flood-opacity="0" result="BackgroundImageFix"/>
<feBlend mode="normal" in="SourceGraphic" in2="BackgroundImageFix" result="shape"/>
<feGaussianBlur stdDeviation="86.8" result="effect1_foregroundBlur_252_257"/>
</filter>
<filter id="filter8_f_252_257" x="0.399994" y="692.4" width="849.2" height="740.2" filterUnits="userSpaceOnUse" color-interpolation-filters="sRGB">
<feFlood flood-opacity="0" result="BackgroundImageFix"/>
<feBlend mode="normal" in="SourceGraphic" in2="BackgroundImageFix" result="shape"/>
<feGaussianBlur stdDeviation="86.8" result="effect1_foregroundBlur_252_257"/>
</filter>
<clipPath id="clip0_252_257">
<rect width="1280" height="1117" fill="white"/>
</clipPath>
</defs>
</svg>
